PathFileType	4	(X/Y/Z)	C:\Users\WrightLab\Desktop\Jo\P1.2Trial3.trc
DataRate	CameraRate	NumFrames	NumMarkers	Units	OrigDataRate	OrigDataStartFrame	OrigNumFrames
100.00	100.00	       12	19	mm	100.00	247	       658
Frame#	Time	Headset_Front			Headset_Back			Headset_Left			Headset_Right			Left_Shoulder			Right_Shoulder			Sternum			C7			Left Elbow			Right Elbow			Left Wrist			Right Wrist			Left ASIS			Right ASIS			S2			Left Knee			Right Knee			Left Ankle			Right Ankle			
		X1	Y1	Z1	X2	Y2	Z2	X3	Y3	Z3	X4	Y4	Z4	X5	Y5	Z5	X6	Y6	Z6	X7	Y7	Z7	X8	Y8	Z8	X9	Y9	Z9	X10	Y10	Z10	X11	Y11	Z11	X12	Y12	Z12	X13	Y13	Z13	X14	Y14	Z14	X15	Y15	Z15	X16	Y16	Z16	X17	Y17	Z17	X18	Y18	Z18	X19	Y19	Z19	

247	2.460	-742.00507	1415.58508	-581.02234	-632.90112	1492.56775	-761.70410	-523.10638	1437.07800	-645.09540	-636.29224	1383.90662	-473.38306	-418.56992	1219.28491	-663.24213	-833.83368	1238.96729	-712.77234	-646.78705	1163.21338	-571.81006	-611.26935	1286.74219	-803.12042	-353.00565	934.80365	-704.91730	-916.09296	996.60388	-768.24213	-324.39700	721.88824	-597.50238	-1013.93225	761.31482	-703.01868	-542.36926	847.74548	-551.43158	-803.17175	851.02142	-623.24518	-580.72339	890.69464	-853.15765	-595.73938	433.31152	-517.62878	-884.09998	423.13031	-658.65070	-610.20941	65.72497	-553.07153	-782.65942	174.54710	-897.31604	
248	2.470	-742.29816	1416.71326	-571.89447	-634.07178	1494.39819	-753.39795	-523.85065	1438.39880	-635.68359	-636.62354	1384.96753	-464.39612	-419.10358	1221.24182	-655.52112	-835.57416	1239.93005	-704.43188	-647.22925	1165.16040	-563.46661	-612.16931	1288.43738	-795.37329	-354.38031	935.77515	-694.71704	-918.12225	997.82855	-758.87415	-325.44666	724.73193	-583.96564	-1015.99353	762.92535	-692.39551	-539.91772	850.66357	-539.34662	-803.47101	852.84424	-613.12042	-582.55237	891.49097	-844.52393	-592.01898	430.33127	-515.57458	-887.81262	426.19714	-634.11450	-609.32544	66.33684	-554.80981	-788.76819	177.55971	-876.08575	
249	2.480	-743.23761	1417.67346	-562.48773	-635.30969	1495.80310	-744.09827	-524.65521	1439.68530	-626.47809	-638.37561	1386.48987	-456.10580	-419.41199	1223.42639	-649.01215	-835.75848	1241.08020	-695.34607	-648.68182	1166.60828	-555.91406	-613.51929	1290.10828	-787.62152	-354.53415	937.15375	-684.00317	-919.86865	999.00787	-749.76123	-326.61664	727.43451	-569.57922	-1018.11304	765.41785	-682.24738	-538.40265	851.83618	-532.15430	-803.45056	852.73126	-603.09644	-584.29541	892.81152	-836.63782	-587.15698	428.12790	-513.52649	-891.37292	430.17496	-609.52802	-609.51660	65.25787	-557.56903	-793.83630	176.57368	-853.19257	
250	2.490	-743.55493	1419.07275	-553.82806	-636.34869	1497.44592	-735.73767	-525.28210	1440.96851	-617.93854	-637.96643	1387.12195	-447.32678	-420.64236	1225.57874	-640.99713	-837.80811	1242.65381	-687.64246	-647.98279	1167.81274	-547.64441	-614.46912	1290.53198	-778.58319	-352.49799	939.61951	-674.85699	-921.31091	1000.21295	-740.69812	-326.70981	730.10065	-557.74756	-1019.79749	766.08118	-671.18048	-536.56079	853.64435	-523.69128	-803.46143	854.65479	-592.35211	-586.12891	893.61676	-828.03369	-581.45593	425.10931	-511.25537	-895.52954	436.10501	-585.57056	-609.11591	64.84825	-560.16711	-801.84558	178.66417	-830.27258	
251	2.500	-744.46356	1419.95142	-545.27917	-637.48743	1498.83862	-727.34790	-526.39124	1442.43896	-609.62091	-638.85950	1388.33899	-439.27145	-421.31146	1226.76514	-633.20776	-838.80096	1243.18567	-678.84113	-649.69836	1169.13489	-539.14850	-616.15948	1291.63892	-769.56152	-353.76526	939.96619	-664.73206	-922.79785	1000.94916	-731.46899	-327.72855	732.48236	-543.65979	-1021.64581	767.94165	-661.14093	-535.10150	855.15930	-515.47809	-804.24640	854.51587	-582.75269	-588.16559	894.45453	-820.27539	-575.86719	424.29391	-508.52737	-897.89258	443.75140	-564.32794	-608.73425	64.43952	-563.43103	-806.77844	177.09250	-805.34601	
252	2.510	-744.84131	1420.86914	-536.64581	-638.60248	1500.02332	-718.92682	-527.03809	1443.38757	-601.99414	-638.93250	1389.51770	-430.74255	-421.97165	1228.18616	-626.46820	-839.13391	1244.08777	-670.40674	-649.10406	1170.16113	-531.25574	-617.42499	1292.35938	-761.07532	-354.04703	942.33209	-655.51477	-923.68146	1002.15662	-722.66339	-328.33960	735.04767	-530.65314	-1023.24219	768.46869	-649.50311	-533.38000	856.87402	-506.51440	-803.84070	855.88348	-572.04218	-589.96204	895.82135	-812.80621	-571.04041	421.96115	-506.15829	-898.18567	449.89072	-545.97900	-607.15228	65.13750	-566.48236	-812.36389	174.53947	-779.96442	
253	2.520	-746.13324	1421.75574	-528.42224	-639.59338	1501.04834	-710.43933	-527.40875	1444.64697	-593.97339	-640.34637	1390.21851	-422.34991	-422.77567	1229.63416	-619.15698	-840.89777	1245.72595	-661.50458	-649.47583	1172.10950	-522.91644	-618.48315	1293.83826	-755.15942	-353.53561	943.07916	-645.66943	-924.85846	1002.54333	-713.56311	-328.53662	738.61005	-519.23407	-1024.06958	769.97180	-639.92242	-532.53345	859.10199	-499.19885	-804.21313	856.19531	-561.74023	-592.04486	896.50049	-804.98578	-566.28693	420.41599	-504.19342	-898.02350	455.55847	-527.87872	-605.89545	64.59615	-570.36945	-818.56470	172.04863	-754.13739	
254	2.530	-746.35852	1422.30530	-520.03723	-640.59662	1501.95557	-701.73981	-528.65973	1445.69751	-585.87683	-640.40680	1390.72083	-414.03882	-423.24368	1230.85400	-612.11987	-841.09778	1246.73071	-653.36328	-649.73962	1172.83459	-514.90552	-618.89563	1294.78345	-747.86450	-353.52097	943.87360	-636.22632	-925.41479	1003.64459	-705.07758	-328.11472	741.20966	-506.75955	-1025.09119	770.81793	-629.17822	-530.82629	860.19049	-489.21594	-804.24176	857.32202	-551.48328	-594.46204	896.87561	-797.64575	-561.22552	419.10916	-501.24274	-895.04865	459.44040	-511.24591	-605.28253	63.51970	-572.87024	-825.19391	170.01160	-728.23981	
255	2.540	-747.23419	1422.90540	-511.31705	-641.51050	1502.82764	-693.76251	-529.26508	1446.18970	-577.76611	-642.39233	1390.03699	-411.27802	-423.21436	1231.97742	-604.31329	-842.21667	1246.62500	-643.63727	-649.34332	1173.64246	-506.50214	-620.84790	1294.40771	-736.88678	-353.43723	945.68298	-627.72595	-926.19373	1003.97205	-695.99921	-328.87283	743.10211	-494.91537	-1025.53223	771.45880	-619.16138	-530.01270	861.26440	-482.02911	-804.10370	856.48700	-541.30267	-596.98895	897.29828	-790.48694	-558.83813	416.54791	-498.48688	-892.51074	461.88651	-494.85443	-604.58435	63.13880	-573.43927	-830.31982	165.69418	-701.75043	
256	2.550	-747.60767	1423.27441	-503.22427	-642.38257	1503.37244	-685.10339	-530.15051	1446.96790	-569.11426	-641.08588	1392.61462	-397.31003	-424.46185	1232.59290	-596.88580	-842.55347	1247.46777	-635.18866	-649.88702	1174.59644	-497.88770	-622.20178	1295.40393	-729.81506	-354.13751	946.98303	-619.60059	-928.22723	1005.52570	-688.10760	-327.91367	745.80902	-482.92532	-1025.86658	771.79126	-608.81641	-528.15735	862.46539	-473.09003	-803.20245	858.27563	-530.20160	-599.71454	897.49365	-782.99957	-554.19147	415.74692	-495.47934	-890.09479	464.47974	-479.18481	-603.09949	62.86282	-575.37762	-836.87256	160.62666	-676.54895	
257	2.560	-748.21185	1423.41919	-494.27029	-643.15063	1504.11255	-677.05365	-530.54938	1447.68274	-562.03448	-641.43842	1392.25513	-388.69864	-424.76691	1233.62646	-590.26239	-843.56030	1247.33411	-624.53735	-650.52832	1175.22729	-490.35620	-623.94263	1297.15527	-722.57275	-353.93423	947.24750	-610.32684	-928.37042	1005.46429	-677.90039	-328.71884	747.63275	-472.46957	-1024.76550	771.49121	-598.11768	-526.19421	862.75531	-467.06174	-802.87885	858.31256	-520.37347	-602.75397	897.64661	-776.45404	-550.12726	415.14651	-492.99689	-886.69507	467.61963	-464.12238	-601.82849	62.29636	-577.27509	-841.14984	156.86230	-648.64148	
258	2.570	-748.81055	1423.84351	-485.79956	-644.06915	1504.14075	-668.69977	-531.50562	1447.47498	-552.71881	-642.21027	1393.03210	-380.58078	-425.73740	1234.16785	-582.49048	-844.20923	1247.58997	-616.36951	-649.68945	1175.23633	-481.74249	-624.94281	1296.87354	-714.52191	-353.59869	947.68567	-603.22314	-927.97900	1004.60645	-667.90045	-328.90802	748.81348	-462.26831	-1025.65015	772.02576	-588.11707	-524.56610	863.33313	-459.35052	-802.83289	858.69702	-509.54550	-605.85956	897.59692	-768.74994	-546.22052	414.35138	-490.12473	-884.27917	470.62033	-448.86893	-602.08893	62.22008	-578.13721	-846.85046	152.99278	-621.34503	
